PathFileType	4	(X/Y/Z)	markers_results_mono.trc
DataRate	CameraRate	NumFrames	NumMarkers	Units	OrigDataRate	OrigDataStartFrame	OrigNumFrames
12.500000	12.500000	16	22	m	12.500000	754	3015
Frame#	Time	Nose			Neck			LShoulder			RShoulder			LElbow			RElbow			LWrist			RWrist			LHip			RHip			LKnee			RKnee			LAnkle			RAnkle			LEye			REye			LThumb			LIndex			LPinky			RThumb			RIndex			RPinky
		X1	Y1	Z1	X2	Y2	Z2	X3	Y3	Z3	X4	Y4	Z4	X5	Y5	Z5	X6	Y6	Z6	X7	Y7	Z7	X8	Y8	Z8	X9	Y9	Z9	X10	Y10	Z10	X11	Y11	Z11	X12	Y12	Z12	X13	Y13	Z13	X14	Y14	Z14	X15	Y15	Z15	X16	Y16	Z16	X17	Y17	Z17	X18	Y18	Z18	X19	Y19	Z19	X20	Y20	Z20	X21	Y21	Z21	X22	Y22	Z22

754	60.240000	0.690778	-0.824421	0.054074	0.533222	-0.822814	0.072547	0.506162	-0.842162	-0.174777	0.560281	-0.803466	0.319870	0.064280	-0.623497	-0.318150	0.425418	-0.574803	0.520046	0.095062	-0.361870	-0.459847	0.580909	-0.383582	0.304604	-0.052146	-0.343190	-0.150470	0.047446	-0.250906	0.134327	-0.099015	-0.073604	-0.213487	-0.126511	0.022728	0.063706	-0.456862	0.100239	-0.301751	-0.433916	0.262393	-0.055888	0.690778	-0.914100	0.043727	0.690778	-0.858913	0.136855	0.095062	-0.445721	-0.459847	0.095062	-0.425862	-0.459847	0.095062	-0.423655	-0.459847	0.580909	-0.127647	0.959988	0.580909	-0.127647	0.959988	0.580909	-0.127647	-0.415362
755	60.320000	0.682894	-0.841900	0.113860	0.513251	-0.837128	0.119165	0.516541	-0.889896	-0.151911	0.509960	-0.784360	0.390241	0.123357	-0.663288	-0.413537	0.270906	-0.510665	0.566971	0.209373	-0.415849	-0.553297	0.391860	-0.323947	0.305063	-0.049376	-0.360553	-0.179070	0.042602	-0.273757	0.150700	-0.125588	-0.035707	-0.232102	-0.093700	0.007546	0.115610	-0.441772	0.076463	-0.306212	-0.356758	0.213235	-0.012977	0.682894	-0.944748	0.097862	0.682894	-0.887610	0.207566	0.209373	-1.008649	-0.725021	0.209373	-0.851040	-0.725021	0.209373	-0.721659	-0.725021	0.391860	-2.273283	0.825754	0.391860	-0.873926	0.825754	0.391860	-0.652633	0.825754
756	60.400000	0.677227	-0.877543	0.074920	0.489216	-0.852772	0.108236	0.493868	-0.904306	-0.164281	0.484564	-0.801238	0.380753	0.125877	-0.690442	-0.426800	0.270231	-0.566941	0.572937	0.235690	-0.454051	-0.553415	0.369537	-0.341552	0.314443	-0.050883	-0.383893	-0.177923	0.047505	-0.297628	0.156987	-0.143210	-0.069540	-0.243108	-0.063440	-0.046324	0.110796	-0.451627	0.009355	-0.307261	-0.326111	0.145951	-0.007166	0.677227	-0.970199	0.051263	0.677227	-0.924857	0.159691	0.235690	-0.868817	-0.553415	0.235690	-0.875101	-0.553415	0.235690	-0.820637	-0.553415	0.369537	-0.158782	0.882195	0.369537	0.117316	0.882195	0.369537	-1.204846	0.882195
757	60.480000	0.682834	-0.897358	0.005789	0.484849	-0.866335	0.081793	0.478884	-0.908748	-0.189352	0.490814	-0.823922	0.352938	0.116941	-0.696166	-0.430112	0.308437	-0.595796	0.565902	0.223927	-0.455500	-0.544824	0.379708	-0.343159	0.332337	-0.053028	-0.408089	-0.173524	0.053075	-0.318632	0.158559	-0.161318	-0.089658	-0.265248	-0.057166	-0.048205	0.088710	-0.468578	-0.010216	-0.309405	-0.319706	0.122287	-0.015828	0.682834	-0.984110	-0.020614	0.682834	-0.946392	0.081226	0.223927	-0.340715	-0.544824	0.223927	-0.887775	-0.544824	0.223927	-0.497018	-0.544824	0.379708	-0.238860	0.188680	0.379708	-0.110947	0.611778	0.379708	-0.110947	0.611778
758	60.560000	0.680921	-0.912942	-0.083842	0.479838	-0.884400	0.047282	0.460162	-0.913687	-0.216782	0.499514	-0.855113	0.311345	0.101579	-0.698956	-0.421994	0.325382	-0.642769	0.547002	0.201771	-0.456093	-0.524750	0.347128	-0.355212	0.363178	-0.053683	-0.432918	-0.166389	0.058546	-0.342107	0.156309	-0.158151	-0.121948	-0.270140	-0.055898	-0.066868	0.066212	-0.471117	-0.022375	-0.306066	-0.323398	0.103755	-0.022011	0.680921	-0.994664	-0.107498	0.680921	-0.966706	-0.010722	0.201771	-0.952540	-0.726013	0.201771	-0.367537	-0.726013	0.201771	-0.442675	-0.726013	0.347128	-0.478801	0.255536	0.347128	-0.271490	0.596403	0.347128	-0.847575	0.596403
759	60.640000	0.666496	-0.925042	-0.178296	0.474930	-0.898528	0.006245	0.437922	-0.911350	-0.248067	0.511938	-0.885706	0.260557	0.080112	-0.693237	-0.412024	0.353633	-0.696954	0.517618	0.154842	-0.442039	-0.504691	0.330027	-0.377480	0.392202	-0.055070	-0.457020	-0.157125	0.063014	-0.364729	0.154077	-0.166761	-0.120061	-0.278413	-0.064744	-0.054089	0.040435	-0.477591	-0.015142	-0.309205	-0.332776	0.106374	-0.036717	0.666496	-1.006622	-0.192938	0.666496	-0.983612	-0.111359	0.154842	-0.319379	-0.710076	0.154842	-0.319379	-0.710076	0.154842	-0.436334	-0.710076	0.330027	-0.492498	0.392202	0.330027	-0.206177	0.392202	0.330027	-0.027532	0.392202
760	60.720000	0.626433	-0.950617	-0.268170	0.463391	-0.920634	-0.034405	0.410288	-0.920539	-0.277197	0.516495	-0.920729	0.208386	0.058892	-0.699358	-0.397978	0.370006	-0.744297	0.485028	0.115433	-0.436743	-0.482848	0.310422	-0.403747	0.407010	-0.057027	-0.478465	-0.146131	0.067518	-0.387725	0.151173	-0.180181	-0.133684	-0.279067	-0.071618	-0.040433	0.018517	-0.481949	0.000286	-0.315083	-0.340091	0.123489	-0.049872	0.626433	-1.022251	-0.280109	0.626433	-1.008322	-0.210466	0.115433	-0.318727	-0.704490	0.115433	-0.327362	-0.704490	0.115433	-0.376296	-0.704490	0.310422	-0.474838	0.298399	0.310422	-0.534080	0.341844	0.310422	-0.532105	0.608433
761	60.800000	0.568127	-0.989652	-0.333198	0.441974	-0.946996	-0.069710	0.373853	-0.936501	-0.299711	0.510095	-0.957491	0.160291	0.030725	-0.713578	-0.383150	0.387130	-0.780711	0.453429	0.063264	-0.437856	-0.461166	0.320754	-0.436309	0.401601	-0.060194	-0.492022	-0.135583	0.072023	-0.408185	0.146275	-0.211217	-0.136431	-0.274073	-0.079002	-0.031265	-0.001330	-0.490229	0.025452	-0.308152	-0.345291	0.141058	-0.059329	0.568127	-1.058926	-0.340895	0.568127	-1.049305	-0.287016	0.063264	-0.333976	-0.607446	0.063264	-0.317016	-0.607446	0.063264	-0.363656	-0.607446	0.320754	-0.335713	0.342556	0.320754	-0.302910	0.362237	0.320754	-0.313845	0.405975
762	60.880000	0.503044	-1.038759	-0.360238	0.407160	-0.974369	-0.085521	0.330819	-0.960905	-0.301903	0.483501	-0.987833	0.130860	0.004003	-0.738734	-0.361271	0.381543	-0.805927	0.431000	0.031418	-0.460049	-0.433459	0.327072	-0.469891	0.384375	-0.061572	-0.494581	-0.127128	0.077277	-0.421263	0.140158	-0.225097	-0.147862	-0.251810	-0.082397	-0.034832	-0.007022	-0.490401	0.032352	-0.280330	-0.341046	0.142410	-0.055583	0.503044	-1.100095	-0.372110	0.503044	-1.092181	-0.324623	0.031418	-0.389199	-0.458599	0.031418	-0.313777	-0.465456	0.031418	-0.318348	-0.465456	0.327072	-0.347671	0.309800	0.327072	-0.322812	0.332586	0.327072	-0.337313	0.396804
763	60.960000	0.451299	-1.088131	-0.352763	0.373314	-0.997275	-0.084937	0.292619	-0.983801	-0.288329	0.454009	-1.010749	0.118456	-0.020438	-0.766275	-0.338180	0.378518	-0.825318	0.413903	0.001207	-0.490594	-0.406546	0.347189	-0.501996	0.354840	-0.062172	-0.497799	-0.119211	0.081547	-0.432171	0.133363	-0.243439	-0.153578	-0.223445	-0.087030	-0.047253	-0.013032	-0.499807	0.029704	-0.243886	-0.341507	0.131027	-0.053626	0.451299	-1.147649	-0.358522	0.451299	-1.143809	-0.316284	0.001207	-0.377129	-0.410828	0.001207	-0.347158	-0.453645	0.001207	-0.357862	-0.445082	0.347189	-0.359365	0.254159	0.347189	-0.321610	0.287720	0.347189	-0.332098	0.350645
764	61.040000	0.409736	-1.137763	-0.328940	0.341362	-1.021698	-0.072889	0.260652	-1.012340	-0.265292	0.422072	-1.031056	0.119514	-0.039607	-0.798869	-0.314083	0.361933	-0.836101	0.400363	-0.013524	-0.530603	-0.383906	0.350960	-0.525568	0.322697	-0.061841	-0.505598	-0.112756	0.084408	-0.445390	0.127245	-0.251763	-0.171281	-0.191878	-0.087158	-0.069387	-0.016239	-0.505462	0.016709	-0.207891	-0.341913	0.110352	-0.051560	0.409736	-1.194583	-0.334438	0.409736	-1.189084	-0.290449	-0.013524	-0.368271	-0.373500	-0.013524	-0.318322	-0.408880	-0.013524	-0.359946	-0.396393	0.350960	-0.382017	0.205430	0.350960	-0.337536	0.241823	0.350960	-0.341580	0.314610
765	61.120000	0.378449	-1.180572	-0.296911	0.315686	-1.042757	-0.056454	0.233783	-1.037659	-0.239514	0.397590	-1.047855	0.126605	-0.060178	-0.828438	-0.290817	0.353206	-0.840967	0.388024	-0.033815	-0.567675	-0.366729	0.361621	-0.541496	0.288500	-0.063160	-0.515550	-0.107116	0.087378	-0.457742	0.121695	-0.266325	-0.181615	-0.164070	-0.085766	-0.087938	-0.026696	-0.519547	0.005055	-0.175341	-0.349371	0.091169	-0.056654	0.378449	-1.233131	-0.302348	0.378449	-1.227694	-0.262476	-0.033815	-0.401286	-0.351068	-0.033815	-0.366051	-0.368686	-0.033815	-0.405201	-0.372601	0.361621	-0.407650	0.164496	0.361621	-0.358442	0.194021	0.361621	-0.362379	0.255039
766	61.200000	0.352204	-1.219781	-0.261096	0.293096	-1.064397	-0.036020	0.210947	-1.065716	-0.210438	0.375245	-1.063078	0.138399	-0.078134	-0.859213	-0.265162	0.335349	-0.840247	0.376136	-0.042341	-0.607766	-0.351892	0.356343	-0.551834	0.254458	-0.064680	-0.526855	-0.102087	0.090669	-0.470491	0.116262	-0.272458	-0.198598	-0.137008	-0.081865	-0.107220	-0.036406	-0.527478	-0.010467	-0.146478	-0.356010	0.072732	-0.062288	0.352204	-1.273410	-0.261096	0.352204	-1.265749	-0.217044	-0.042341	-0.442698	-0.345543	-0.042341	-0.402489	-0.360356	-0.042341	-0.430000	-0.364589	0.356343	-0.439825	0.126157	0.356343	-0.405204	0.152631	0.356343	-0.395021	0.215764
767	61.280000	0.332195	-1.252497	-0.224360	0.276103	-1.081549	-0.016832	0.190789	-1.088252	-0.181964	0.361418	-1.074847	0.148299	-0.096507	-0.883901	-0.239500	0.327626	-0.836744	0.361533	-0.055643	-0.641872	-0.337235	0.357199	-0.560244	0.218219	-0.067693	-0.538776	-0.096331	0.094627	-0.482386	0.110165	-0.282789	-0.209683	-0.114890	-0.079131	-0.123291	-0.052403	-0.540089	-0.020417	-0.122118	-0.364873	0.057862	-0.074050	0.332195	-1.304258	-0.226277	0.332195	-1.294672	-0.180268	-0.055643	-0.498632	-0.345787	-0.055643	-0.449460	-0.362890	-0.055643	-0.475115	-0.373580	0.357199	-0.464542	0.081793	0.357199	-0.425853	0.100119	0.357199	-0.407528	0.157133
768	61.360000	0.316443	-1.280036	-0.189430	0.262983	-1.096573	0.001913	0.174191	-1.109386	-0.153890	0.351775	-1.083759	0.157716	-0.110480	-0.904559	-0.213629	0.314760	-0.825706	0.344907	-0.061105	-0.671077	-0.322201	0.345870	-0.558886	0.185287	-0.070695	-0.550243	-0.090767	0.098620	-0.493704	0.104229	-0.285951	-0.222677	-0.095650	-0.076592	-0.139612	-0.066256	-0.546396	-0.026360	-0.102936	-0.370875	0.047913	-0.086945	0.316443	-1.331079	-0.189430	0.316443	-1.319300	-0.142313	-0.061105	-0.529950	-0.341445	-0.061105	-0.489323	-0.367104	-0.061105	-0.512844	-0.364966	0.345870	-0.469805	0.040271	0.345870	-0.426300	0.054773	0.345870	-0.405583	0.114851
769	61.440000	0.305959	-1.301889	-0.156111	0.254406	-1.107854	0.019630	0.159627	-1.125313	-0.126281	0.349184	-1.090394	0.165541	-0.124654	-0.919964	-0.187064	0.311677	-0.815195	0.328845	-0.073269	-0.693756	-0.303660	0.342479	-0.553784	0.158919	-0.074898	-0.561028	-0.084543	0.103370	-0.503542	0.097875	-0.293755	-0.230051	-0.079499	-0.074948	-0.152097	-0.083245	-0.556860	-0.026111	-0.085969	-0.377593	0.043844	-0.102523	0.305959	-1.350786	-0.156111	0.305959	-1.338562	-0.105177	-0.073269	-0.554677	-0.337376	-0.073269	-0.523069	-0.356341	-0.073269	-0.537819	-0.341591	0.342479	-0.468443	0.019459	0.342479	-0.426813	0.029867	0.342479	-0.403917	0.090230
